<svg width="300" height="300" viewBox="0 0 300 300" fill="none" xmlns="http://www.w3.org/2000/svg">
<g clip-path="url(#clip0_206_7814)">
<rect width="300" height="300" rx="150" fill="white"/>
<g clip-path="url(#clip1_206_7814)">
<rect width="300" height="300" fill="white"/>
<path d="M300 300L300 0L0 -1.35953e-05L-1.26486e-05 300L300 300Z" fill="#290B31"/>
<rect x="300" y="300" width="300" height="300" transform="rotate(-180 300 300)" fill="url(#paint0_linear_206_7814)"/>
<g style="mix-blend-mode:difference" filter="url(#filter0_d_206_7814)">
<path d="M125.734 172.677C126.281 173.195 126.424 174 126.051 174.661L126.079 174.69L87.4934 241.913C86.1995 244.099 84.7906 246.054 81.8291 245.939C79.0114 245.853 76.8549 243.897 76.5961 241.108C76.5674 240.562 76.5674 240.016 76.5674 239.469V145.966C76.6249 127.593 82.6054 109.565 94.4228 95.4187C106.24 81.2724 121.249 72.3016 139.392 69.0238C160.813 65.1422 180.824 69.4551 198.766 82.5375C215.069 94.4124 225.88 111.434 229.301 132.366C232.723 153.298 228.151 172.62 215.586 189.756C205.149 203.96 189.738 214.397 173.032 218.825C156.327 223.253 139.996 222.16 124.383 215.691C122.744 215.001 122.715 214.915 123.607 213.362L141.031 183.459C141.405 182.827 142.152 182.539 142.871 182.74C155.982 186.536 170.646 183.316 180.508 173.597C188.53 165.661 192.901 156.518 193.131 145.592C193.361 133.458 188.875 124.574 181.313 117.098C171.854 107.754 157.075 104.62 144.366 107.782C127.028 112.124 118.345 123.223 115.47 136.19C112.508 149.445 114.895 162.412 125.734 172.677Z" fill="#9051F4"/>
<path d="M169.755 145.448C169.755 155.325 162.584 163.332 153.739 163.332C144.894 163.332 137.724 155.325 137.724 145.448C137.724 135.571 144.894 127.564 153.739 127.564C162.584 127.564 169.755 135.571 169.755 145.448Z" fill="#9051F4"/>
</g>
<g style="mix-blend-mode:soft-light" filter="url(#filter1_d_206_7814)">
<path d="M125.734 172.677C126.281 173.195 126.424 174 126.051 174.661L126.079 174.69L87.4934 241.913C86.1995 244.099 84.7906 246.054 81.8291 245.939C79.0114 245.853 76.8549 243.897 76.5961 241.108C76.5674 240.562 76.5674 240.016 76.5674 239.469V145.966C76.6249 127.593 82.6054 109.565 94.4228 95.4187C106.24 81.2724 121.249 72.3016 139.392 69.0238C160.813 65.1422 180.824 69.4551 198.766 82.5375C215.069 94.4124 225.88 111.434 229.301 132.366C232.723 153.298 228.151 172.62 215.586 189.756C205.149 203.96 189.738 214.397 173.032 218.825C156.327 223.253 139.996 222.16 124.383 215.691C122.744 215.001 122.715 214.915 123.607 213.362L141.031 183.459C141.405 182.827 142.152 182.539 142.871 182.74C155.982 186.536 170.646 183.316 180.508 173.597C188.53 165.661 192.901 156.518 193.131 145.592C193.361 133.458 188.875 124.574 181.313 117.098C171.854 107.754 157.075 104.62 144.366 107.782C127.028 112.124 118.345 123.223 115.47 136.19C112.508 149.445 114.895 162.412 125.734 172.677Z" fill="white"/>
<path d="M169.755 145.448C169.755 155.325 162.584 163.332 153.739 163.332C144.894 163.332 137.724 155.325 137.724 145.448C137.724 135.571 144.894 127.564 153.739 127.564C162.584 127.564 169.755 135.571 169.755 145.448Z" fill="white"/>
</g>
<g style="mix-blend-mode:soft-light">
<path d="M125.734 172.677C126.281 173.195 126.424 174 126.051 174.661L126.079 174.69L87.4934 241.913C86.1995 244.099 84.7906 246.054 81.8291 245.939C79.0114 245.853 76.8549 243.897 76.5961 241.108C76.5674 240.562 76.5674 240.016 76.5674 239.469V145.966C76.6249 127.593 82.6054 109.565 94.4228 95.4187C106.24 81.2724 121.249 72.3016 139.392 69.0238C160.813 65.1422 180.824 69.4551 198.766 82.5375C215.069 94.4124 225.88 111.434 229.301 132.366C232.723 153.298 228.151 172.62 215.586 189.756C205.149 203.96 189.738 214.397 173.032 218.825C156.327 223.253 139.996 222.16 124.383 215.691C122.744 215.001 122.715 214.915 123.607 213.362L141.031 183.459C141.405 182.827 142.152 182.539 142.871 182.74C155.982 186.536 170.646 183.316 180.508 173.597C188.53 165.661 192.901 156.518 193.131 145.592C193.361 133.458 188.875 124.574 181.313 117.098C171.854 107.754 157.075 104.62 144.366 107.782C127.028 112.124 118.345 123.223 115.47 136.19C112.508 149.445 114.895 162.412 125.734 172.677Z" fill="white"/>
<path d="M169.755 145.448C169.755 155.325 162.584 163.332 153.739 163.332C144.894 163.332 137.724 155.325 137.724 145.448C137.724 135.571 144.894 127.564 153.739 127.564C162.584 127.564 169.755 135.571 169.755 145.448Z" fill="white"/>
</g>
</g>
</g>
<defs>
<filter id="filter0_d_206_7814" x="20.7976" y="38.6521" width="265.372" height="289.831" filterUnits="userSpaceOnUse" color-interpolation-filters="sRGB">
<feFlood flood-opacity="0" result="BackgroundImageFix"/>
<feColorMatrix in="SourceAlpha" type="matrix" values="0 0 0 0 0 0 0 0 0 0 0 0 0 0 0 0 0 0 127 0" result="hardAlpha"/>
<feOffset dy="26.7695"/>
<feGaussianBlur stdDeviation="27.8849"/>
<feComposite in2="hardAlpha" operator="out"/>
<feColorMatrix type="matrix" values="0 0 0 0 0.160784 0 0 0 0 0.0431373 0 0 0 0 0.192157 0 0 0 1 0"/>
<feBlend mode="normal" in2="BackgroundImageFix" result="effect1_dropShadow_206_7814"/>
<feBlend mode="normal" in="SourceGraphic" in2="effect1_dropShadow_206_7814" result="shape"/>
</filter>
<filter id="filter1_d_206_7814" x="20.7976" y="38.6521" width="265.372" height="289.831" filterUnits="userSpaceOnUse" color-interpolation-filters="sRGB">
<feFlood flood-opacity="0" result="BackgroundImageFix"/>
<feColorMatrix in="SourceAlpha" type="matrix" values="0 0 0 0 0 0 0 0 0 0 0 0 0 0 0 0 0 0 127 0" result="hardAlpha"/>
<feOffset dy="26.7695"/>
<feGaussianBlur stdDeviation="27.8849"/>
<feComposite in2="hardAlpha" operator="out"/>
<feColorMatrix type="matrix" values="0 0 0 0 0.160784 0 0 0 0 0.0431373 0 0 0 0 0.192157 0 0 0 1 0"/>
<feBlend mode="normal" in2="BackgroundImageFix" result="effect1_dropShadow_206_7814"/>
<feBlend mode="normal" in="SourceGraphic" in2="effect1_dropShadow_206_7814" result="shape"/>
</filter>
<linearGradient id="paint0_linear_206_7814" x1="442.73" y1="300" x2="442.73" y2="463.747" gradientUnits="userSpaceOnUse">
<stop stop-color="#9051F4"/>
<stop offset="1" stop-color="#9051F4" stop-opacity="0"/>
</linearGradient>
<clipPath id="clip0_206_7814">
<rect width="300" height="300" rx="150" fill="white"/>
</clipPath>
<clipPath id="clip1_206_7814">
<rect width="300" height="300" fill="white"/>
</clipPath>
</defs>
</svg>
