<svg fill="#7a7980ff" xmlns="http://www.w3.org/2000/svg"  viewBox="0 0 30 30" width="60px" height="60px"><path d="M 10 3 C 8.4571561 3 7.0464657 3.3631361 5.9492188 4.0214844 C 4.8519717 4.6798326 4 5.7212061 4 7 C 4 7.4570736 4.1127536 7.8817218 4.3027344 8.2714844 A 1.0001 1.0001 0 0 0 4 9 L 4 11 C 4 11.457116 4.1127584 11.881719 4.3027344 12.271484 A 1.0001 1.0001 0 0 0 4 13 L 4 15 C 4 15.457116 4.1127584 15.881719 4.3027344 16.271484 A 1.0001 1.0001 0 0 0 4 17 L 4 19 C 4 19.457116 4.1127584 19.881719 4.3027344 20.271484 A 1.0001 1.0001 0 0 0 4 21 L 4 23 C 4 24.278912 4.8519311 25.320204 5.9492188 25.978516 C 7.0465064 26.636828 8.4573607 27 10 27 C 11.542639 27 12.953494 26.636828 14.050781 25.978516 C 14.400138 25.768921 14.719962 25.516922 15 25.234375 C 15.280038 25.516922 15.599862 25.768921 15.949219 25.978516 C 17.046506 26.636828 18.457361 27 20 27 C 21.542639 27 22.953494 26.636828 24.050781 25.978516 C 25.148069 25.320204 26 24.278912 26 23 L 26 21 A 1.0001 1.0001 0 0 0 25.697266 20.269531 C 25.886754 19.880203 26 19.456483 26 19 L 26 17 A 1.0001 1.0001 0 0 0 25.697266 16.269531 C 25.886759 15.880206 26 15.456441 26 15 C 26 13.721206 25.148028 12.679833 24.050781 12.021484 C 22.953534 11.363136 21.542844 11 20 11 C 18.457156 11 17.046466 11.363136 15.949219 12.021484 C 15.873097 12.067158 15.809887 12.128423 15.736328 12.177734 C 15.899594 11.813153 16 11.421369 16 11 L 16 9 A 1.0001 1.0001 0 0 0 15.697266 8.2695312 C 15.886759 7.8802059 16 7.456441 16 7 C 16 5.7212061 15.148028 4.6798326 14.050781 4.0214844 C 12.953534 3.3631361 11.542844 3 10 3 z M 10 5 C 11.21858 5 12.309087 5.3088899 13.021484 5.7363281 C 13.733881 6.1637663 14 6.6219396 14 7 C 14 7.3780604 13.733881 7.8362337 13.021484 8.2636719 C 12.309087 8.6911101 11.21858 9 10 9 C 8.7814202 9 7.6909126 8.6911101 6.9785156 8.2636719 C 6.2661186 7.8362337 6 7.3780604 6 7 C 6 6.6219396 6.2661186 6.1637663 6.9785156 5.7363281 C 7.6909126 5.3088899 8.7814202 5 10 5 z M 6 10.003906 C 7.0902785 10.64431 8.4794614 11 10 11 C 11.520539 11 12.909721 10.64431 14 10.003906 L 14 11 C 14 11.378088 13.733947 11.836234 13.021484 12.263672 C 12.309022 12.69111 11.218361 13 10 13 C 8.7816393 13 7.690978 12.69111 6.9785156 12.263672 C 6.2660533 11.836234 6 11.378088 6 11 L 6 10.003906 z M 20 13 C 21.21858 13 22.309087 13.30889 23.021484 13.736328 C 23.733881 14.163766 24 14.62194 24 15 C 24 15.37806 23.733881 15.836234 23.021484 16.263672 C 22.309087 16.69111 21.21858 17 20 17 C 18.78142 17 17.690913 16.69111 16.978516 16.263672 C 16.266119 15.836234 16 15.37806 16 15 C 16 14.62194 16.266119 14.163766 16.978516 13.736328 C 17.690913 13.30889 18.78142 13 20 13 z M 6 14.003906 C 7.0903219 14.644276 8.479663 15 10 15 C 11.520337 15 12.909679 14.644276 14 14.003906 L 14 15 C 14 15.378088 13.733947 15.836234 13.021484 16.263672 C 12.309022 16.69111 11.218361 17 10 17 C 8.7816393 17 7.690978 16.69111 6.9785156 16.263672 C 6.2660533 15.836234 6 15.378088 6 15 L 6 14.003906 z M 6 18.003906 C 7.0903219 18.644276 8.479663 19 10 19 C 11.520337 19 12.909679 18.644276 14 18.003906 L 14 19 C 14 19.378088 13.733947 19.836234 13.021484 20.263672 C 12.309022 20.69111 11.218361 21 10 21 C 8.7816393 21 7.690978 20.69111 6.9785156 20.263672 C 6.2660533 19.836234 6 19.378088 6 19 L 6 18.003906 z M 16 18.003906 C 17.090279 18.64431 18.479461 19 20 19 C 21.520539 19 22.909721 18.64431 24 18.003906 L 24 19 C 24 19.378088 23.733947 19.836234 23.021484 20.263672 C 22.309022 20.69111 21.218361 21 20 21 C 18.781639 21 17.690978 20.69111 16.978516 20.263672 C 16.266053 19.836234 16 19.378088 16 19 L 16 18.003906 z M 6 22.003906 C 7.0903219 22.644276 8.479663 23 10 23 C 11.520337 23 12.909679 22.644276 14 22.003906 L 14 23 C 14 23.378088 13.733947 23.836234 13.021484 24.263672 C 12.309022 24.69111 11.218361 25 10 25 C 8.7816393 25 7.690978 24.69111 6.9785156 24.263672 C 6.2660533 23.836234 6 23.378088 6 23 L 6 22.003906 z M 16 22.003906 C 17.090321 22.644276 18.479663 23 20 23 C 21.520337 23 22.909679 22.644276 24 22.003906 L 24 23 C 24 23.378088 23.733947 23.836234 23.021484 24.263672 C 22.309022 24.69111 21.218361 25 20 25 C 18.781639 25 17.690978 24.69111 16.978516 24.263672 C 16.266053 23.836234 16 23.378088 16 23 L 16 22.003906 z"/></svg>