<svg fill="#FFFFFF" xmlns="http://www.w3.org/2000/svg"  viewBox="0 0 64 64" width="64px" height="64px"><path d="M 8 8 L 8 20 L 56 20 L 56 8 L 46 8 L 46 9 C 46 10.657 44.657 12 43 12 C 41.343 12 40 10.657 40 9 L 40 8 L 24 8 L 24 9 C 24 10.657 22.657 12 21 12 C 19.343 12 18 10.657 18 9 L 18 8 L 8 8 z M 8 22 L 8 56 L 56 56 L 56 24 L 52 23.832031 L 52 45 C 52 47 47 47 47 47 C 47 47 47 52 44 52 L 12 52 L 12 22.167969 L 8 22 z M 19 29 L 19 35 L 25 35 L 25 29 L 19 29 z M 29 29 L 29 35 L 35 35 L 35 29 L 29 29 z M 39 29 L 39 35 L 45 35 L 45 29 L 39 29 z M 19 39 L 19 45 L 25 45 L 25 39 L 19 39 z M 29 39 L 29 45 L 35 45 L 35 39 L 29 39 z M 39 39 L 39 45 L 45 45 L 45 39 L 39 39 z"/></svg>