<?xml version="1.0"?><svg fill="#d5dbf266" xmlns="http://www.w3.org/2000/svg"  viewBox="0 0 128 128" width="128px" height="128px">    <path d="M15,109.8l48,17c0,0,0,0,0,0c0,0,0,0,0,0c0.3,0.1,0.6,0.1,0.8,0.2c0,0,0.1,0,0.1,0c0.2,0,0.3,0,0.5,0c0.2,0,0.3-0.1,0.5-0.1 l48-17c1.2-0.4,2-1.6,2-2.8V57.8l11.6-19.3c0.1-0.2,0.2-0.4,0.2-0.5c0,0,0-0.1,0-0.1c0-0.2,0.1-0.3,0.1-0.5c0,0,0-0.1,0-0.1 c0-0.2,0-0.4,0-0.6c0,0,0-0.1,0-0.1c0-0.2-0.1-0.3-0.1-0.5c0,0,0-0.1,0-0.1c0,0,0,0,0,0c-0.1-0.2-0.2-0.4-0.3-0.5 c0,0-0.1-0.1-0.1-0.1c0-0.1-0.1-0.1-0.1-0.2c0-0.1-0.1-0.1-0.1-0.2c0,0-0.1-0.1-0.1-0.1c-0.1-0.1-0.3-0.3-0.5-0.4c0,0,0,0-0.1,0 c-0.2-0.1-0.3-0.2-0.5-0.2c0,0,0,0-0.1,0l-48-17c-1.3-0.5-2.8,0.1-3.6,1.3L62,37.5l-23.7,8.4L5,34.2c-1.2-0.4-2.5-0.1-3.3,0.9 c-0.8,1-0.9,2.4-0.2,3.4L13,57.8V107C13,108.3,13.8,109.4,15,109.8z M61,119.8l-42-14.9V61.2l42,14.9V119.8z M77.3,23.6L115,37 l-25.2,8.9l-21.3-7.5L77.3,23.6z M64,43.2l16.8,5.9l-5.8,2c-0.7,0.2-1.2,0.7-1.6,1.3L64,68.2l-9.4-15.7c-0.4-0.6-0.9-1.1-1.6-1.3 l-5.8-2L64,43.2z M10.9,42.6L50,56.5l7.1,11.9L18,54.5L10.9,42.6z"/></svg>