<?xml version="1.0" encoding="UTF-8"?>
<svg version="1.1" xmlns="http://www.w3.org/2000/svg" width="64" height="64">
<path d="M0 0 C5.25270679 3.84037678 9.71819611 9.06525446 11.12109375 15.55078125 C12.11204671 24.57946379 11.5816991 32.08199359 6.12109375 39.55078125 C1.3614144 44.87574318 -3.96125952 48.12079563 -11.08203125 48.90234375 C-20.05640794 49.27141985 -26.91060267 47.99166407 -33.71875 41.90625 C-40.17932979 34.9086049 -41.51842064 28.44623959 -41.2890625 19.0625 C-40.47878497 12.12498094 -37.61906311 6.83585271 -32.50390625 2.11328125 C-22.84679172 -5.15529322 -10.64648407 -6.20607856 0 0 Z M-19.06640625 3.67578125 C-21.32644112 6.84964171 -21.32644112 6.84964171 -21.87890625 12.55078125 C-17.25890625 12.55078125 -12.63890625 12.55078125 -7.87890625 12.55078125 C-8.92146474 6.12335525 -8.92146474 6.12335525 -12.87890625 1.55078125 C-16.90900637 1.08625746 -16.90900637 1.08625746 -19.06640625 3.67578125 Z M-30.87890625 7.55078125 C-32.66853444 10.1693582 -32.66853444 10.1693582 -33.87890625 12.55078125 C-31.89890625 12.55078125 -29.91890625 12.55078125 -27.87890625 12.55078125 C-26.88890625 9.58078125 -25.89890625 6.61078125 -24.87890625 3.55078125 C-27.20251345 3.55078125 -29.27433013 6.13722609 -30.87890625 7.55078125 Z M-4.87890625 3.55078125 C-3.88890625 6.52078125 -2.89890625 9.49078125 -1.87890625 12.55078125 C0.10109375 12.55078125 2.08109375 12.55078125 4.12109375 12.55078125 C1.58746307 8.32806344 -0.4451095 5.76767963 -4.87890625 3.55078125 Z M-35.87890625 16.55078125 C-35.87890625 20.51078125 -35.87890625 24.47078125 -35.87890625 28.55078125 C-33.23890625 28.55078125 -30.59890625 28.55078125 -27.87890625 28.55078125 C-27.87890625 24.59078125 -27.87890625 20.63078125 -27.87890625 16.55078125 C-30.51890625 16.55078125 -33.15890625 16.55078125 -35.87890625 16.55078125 Z M-22.87890625 16.55078125 C-22.87890625 20.51078125 -22.87890625 24.47078125 -22.87890625 28.55078125 C-17.59890625 28.55078125 -12.31890625 28.55078125 -6.87890625 28.55078125 C-6.87890625 24.59078125 -6.87890625 20.63078125 -6.87890625 16.55078125 C-12.15890625 16.55078125 -17.43890625 16.55078125 -22.87890625 16.55078125 Z M-1.87890625 16.55078125 C-1.87890625 20.51078125 -1.87890625 24.47078125 -1.87890625 28.55078125 C0.76109375 28.55078125 3.40109375 28.55078125 6.12109375 28.55078125 C6.12109375 24.59078125 6.12109375 20.63078125 6.12109375 16.55078125 C3.48109375 16.55078125 0.84109375 16.55078125 -1.87890625 16.55078125 Z M-33.87890625 32.55078125 C-31.34527557 36.77349906 -29.312703 39.33388287 -24.87890625 41.55078125 C-25.86890625 38.58078125 -26.85890625 35.61078125 -27.87890625 32.55078125 C-29.85890625 32.55078125 -31.83890625 32.55078125 -33.87890625 32.55078125 Z M-21.87890625 32.55078125 C-20.9288163 38.25132096 -20.50720725 39.57135435 -16.87890625 43.55078125 C-14.49993622 43.59588486 -14.49993622 43.59588486 -11.87890625 42.55078125 C-9.40884647 39.48096255 -7.87890625 36.55582109 -7.87890625 32.55078125 C-12.49890625 32.55078125 -17.11890625 32.55078125 -21.87890625 32.55078125 Z M-1.87890625 32.55078125 C-2.86890625 35.52078125 -3.85890625 38.49078125 -4.87890625 41.55078125 C-0.65618844 39.01715057 1.90419537 36.984578 4.12109375 32.55078125 C2.14109375 32.55078125 0.16109375 32.55078125 -1.87890625 32.55078125 Z " fill="#FFFFFF" transform="translate(46.87890625,9.44921875)"/>
</svg>
