<svg fill="#FFFFFF" xmlns="http://www.w3.org/2000/svg"  viewBox="0 0 24 24" width="48px" height="48px"><path d="M 11.984375 0 A 1.0001 1.0001 0 0 0 11.292969 0.29296875 C 11.292969 0.29296875 9.485523 2.0988064 7.6816406 4.6757812 C 5.8777583 7.2527561 4 10.611111 4 14 C 4 18.406438 7.593562 22 12 22 C 16.406438 22 20 18.406438 20 14 C 20 10.611111 18.122242 7.2527562 16.318359 4.6757812 C 14.514477 2.0988064 12.707031 0.29296875 12.707031 0.29296875 A 1.0001 1.0001 0 0 0 11.984375 0 z M 12 2.5664062 C 12.500604 3.0924734 13.339494 3.906867 14.681641 5.8242188 C 16.377758 8.2472439 18 11.388889 18 14 C 18 17.325562 15.325562 20 12 20 C 8.674438 20 6 17.325562 6 14 C 6 11.388889 7.6222417 8.2472439 9.3183594 5.8242188 C 10.660506 3.906867 11.499396 3.0924734 12 2.5664062 z M 8.984375 12.986328 A 1.0001 1.0001 0 0 0 8 14 C 8 16.197334 9.8026661 18 12 18 A 1.0001 1.0001 0 1 0 12 16 C 10.883334 16 10 15.116666 10 14 A 1.0001 1.0001 0 0 0 8.984375 12.986328 z"/></svg>