<svg fill="#7a7980ff" xmlns="http://www.w3.org/2000/svg"  viewBox="0 0 24 24" width="48px" height="48px"><path d="M 13 2 C 11.894531 2 11 2.894531 11 4 C 11 5.105469 11.894531 6 13 6 C 14.105469 6 15 5.105469 15 4 C 15 2.894531 14.105469 2 13 2 Z M 19.34375 5 L 16.125 7 L 13.375 7 L 9.9375 6.1875 L 9.8125 6.1875 L 7.59375 5.9375 C 6.96875 5.875 6.363281 6.132813 5.9375 6.59375 L 3.53125 9.1875 L 5 10.53125 L 7.40625 7.9375 L 9.46875 8.15625 L 9.6875 8.1875 L 8.59375 12.40625 C 8.34375 13.382813 8.820313 14.371094 9.6875 14.8125 L 10.09375 15.125 L 13.0625 17.34375 L 14 20 L 3 20 L 3 22 L 21 22 L 21 20 L 16.09375 20 L 14.96875 16.6875 C 14.839844 16.3125 14.597656 15.988281 14.28125 15.75 L 12.03125 14.09375 L 15.15625 13.28125 L 17.65625 16.71875 L 19.28125 15.53125 L 16.78125 12.09375 C 16.300781 11.4375 15.441406 11.148438 14.65625 11.34375 L 12.5625 11.84375 L 13.34375 9 L 16.125 9 C 16.496094 9 16.867188 8.917969 17.1875 8.71875 L 20.40625 6.6875 Z"/></svg>