<svg fill="#FFFFFF" xmlns="http://www.w3.org/2000/svg"  viewBox="0 0 24 24" width="48px" height="48px"><path d="M 11.244141 2.0019531 L 11.244141 2.7519531 L 11.244141 3.1542969 C 6.9115518 3.5321749 3.524065 6.919829 3.1445312 11.251953 L 2.7421875 11.251953 L 1.9921875 11.251953 L 1.9921875 12.751953 L 2.7421875 12.751953 L 3.1445312 12.751953 C 3.5225907 17.085781 6.9110367 20.473593 11.244141 20.851562 L 11.244141 21.253906 L 11.244141 22.003906 L 12.744141 22.003906 L 12.744141 21.253906 L 12.744141 20.851562 C 17.076343 20.47195 20.463928 17.083895 20.841797 12.751953 L 21.244141 12.751953 L 21.994141 12.751953 L 21.994141 11.251953 L 21.244141 11.251953 L 20.841797 11.251953 C 20.462285 6.9209126 17.074458 3.5337191 12.744141 3.1542969 L 12.744141 2.7519531 L 12.744141 2.0019531 L 11.244141 2.0019531 z M 11.244141 4.6523438 L 11.244141 8.0742188 C 9.6430468 8.3817751 8.3759724 9.6507475 8.0683594 11.251953 L 4.6425781 11.251953 C 5.0091295 7.7343248 7.7260437 5.0173387 11.244141 4.6523438 z M 12.744141 4.6523438 C 16.25959 5.0189905 18.975147 7.7358303 19.341797 11.251953 L 15.917969 11.251953 C 15.610766 9.6510551 14.344012 8.3831177 12.744141 8.0742188 L 12.744141 4.6523438 z M 11.992188 9.4980469 C 13.371637 9.4980469 14.481489 10.6041 14.492188 11.982422 L 14.492188 12.021484 C 14.481501 13.40006 13.372858 14.503906 11.992188 14.503906 C 10.606048 14.503906 9.4921875 13.389599 9.4921875 12.001953 C 9.4921875 10.614029 10.60482 9.4980469 11.992188 9.4980469 z M 4.6425781 12.751953 L 8.0683594 12.751953 C 8.3760866 14.352973 9.6433875 15.620527 11.244141 15.927734 L 11.244141 19.353516 C 7.7258668 18.988181 5.0077831 16.270941 4.6425781 12.751953 z M 15.917969 12.751953 L 19.34375 12.751953 C 18.97855 16.26893 16.261295 18.986659 12.744141 19.353516 L 12.744141 15.927734 C 14.344596 15.619809 15.610176 14.35218 15.917969 12.751953 z"/></svg>