<svg fill="#FFFFFF" xmlns="http://www.w3.org/2000/svg"  viewBox="0 0 24 24" width="48px" height="48px"><path d="M9 11H5c-1.103 0-2-.897-2-2V5c0-1.103.897-2 2-2h4c1.103 0 2 .897 2 2v4C11 10.103 10.103 11 9 11zM19 11h-4c-1.103 0-2-.897-2-2V5c0-1.103.897-2 2-2h4c1.103 0 2 .897 2 2v4C21 10.103 20.103 11 19 11zM9 21H5c-1.103 0-2-.897-2-2v-4c0-1.103.897-2 2-2h4c1.103 0 2 .897 2 2v4C11 20.103 10.103 21 9 21zM19 21h-4c-1.103 0-2-.897-2-2v-4c0-1.103.897-2 2-2h4c1.103 0 2 .897 2 2v4C21 20.103 20.103 21 19 21z"/></svg>