<svg fill="rgba(255, 255, 255, 0.5)" xmlns="http://www.w3.org/2000/svg"  viewBox="0 0 24 24" width="48px" height="48px"><path d="M 8.9824219 2 C 8.4404219 2 8 2.4404219 8 2.9824219 L 8 7.3730469 C 8 7.9270469 8.6685469 8.2045 9.0605469 7.8125 L 10.730469 6.1445312 L 19.292969 14.707031 A 1.0001 1.0001 0 1 0 20.707031 13.292969 L 12.144531 4.7304688 L 13.818359 3.0546875 C 14.207359 2.6656875 13.931859 2 13.380859 2 L 8.9824219 2 z M 3.9902344 8.9902344 A 1.0001 1.0001 0 0 0 3.2929688 10.707031 L 11.855469 19.269531 L 10.1875 20.939453 C 9.7965 21.331453 10.072953 22 10.626953 22 L 15.017578 22 C 15.559578 22 16 21.559578 16 21.017578 L 16 16.619141 C 16 16.068141 15.333359 15.792641 14.943359 16.181641 L 13.269531 17.855469 L 4.7070312 9.2929688 A 1.0001 1.0001 0 0 0 3.9902344 8.9902344 z"/></svg>