<svg fill="#FFFFFF" xmlns="http://www.w3.org/2000/svg"  viewBox="0 0 24 24" width="48px" height="48px"><path d="M 8.6523438 2 L 8.1523438 5 L 3.6601562 5 A 1.0001 1.0001 0 0 0 3.4628906 4.9863281 A 1.0001 1.0001 0 0 0 3.3339844 5 L 2 5 L 1 5 L 1 7 L 2 7 L 2.6152344 7 L 4.4414062 22 L 19.558594 22 L 21.384766 7 L 22 7 L 23 7 L 23 5 L 22 5 L 20.753906 5 A 1.0001 1.0001 0 0 0 20.25 5 L 16 5 L 15.847656 5 L 15.347656 2 L 8.6523438 2 z M 10.347656 4 L 13.652344 4 L 13.818359 5 L 10.181641 5 L 10.347656 4 z M 4.6289062 7 L 9.8476562 7 L 16 7 L 19.371094 7 L 17.787109 20 L 6.2128906 20 L 4.6289062 7 z M 8.9257812 8.9316406 L 6.9316406 9.0742188 L 7.0019531 10.070312 L 7.5019531 17.070312 L 7.5742188 18.068359 L 9.5683594 17.925781 L 9.4980469 16.929688 L 8.9980469 9.9296875 L 8.9257812 8.9316406 z M 15.074219 8.9316406 L 15.001953 9.9296875 L 14.501953 16.929688 L 14.431641 17.925781 L 16.425781 18.068359 L 16.498047 17.070312 L 16.998047 10.070312 L 17.068359 9.0742188 L 15.074219 8.9316406 z M 11 9 L 11 10 L 11 17 L 11 18 L 13 18 L 13 17 L 13 10 L 13 9 L 11 9 z"/></svg>